<svg width="154" height="44" viewBox="0 0 154 44" fill="none" xmlns="http://www.w3.org/2000/svg">
<g clip-path="url(#clip0_455_2136)">
<path d="M152.978 38.8044C152.978 41.1326 151.022 43.0182 148.602 43.0182H5.3972C2.97866 43.0182 1.01562 41.1326 1.01562 38.8044V5.20075C1.01562 2.87381 2.97876 0.981445 5.3972 0.981445H148.601C151.022 0.981445 152.977 2.87381 152.977 5.20075L152.978 38.8044Z" fill="white"/>
<path d="M148.603 43.9992H5.39748C2.42196 43.9992 0 41.6701 0 38.8051V5.20252C0 2.33537 2.42196 0.00292969 5.39748 0.00292969H148.601C151.573 0.00292969 153.999 2.33537 153.999 5.20252V38.8051C154.001 41.6701 151.576 43.9992 148.603 43.9992Z" fill="#A6A6A6"/>
<path d="M152.978 38.8044C152.978 41.1326 151.022 43.0182 148.602 43.0182H5.3972C2.97866 43.0182 1.01562 41.1326 1.01562 38.8044V5.20075C1.01562 2.87381 2.97876 0.981445 5.3972 0.981445H148.601C151.022 0.981445 152.977 2.87381 152.977 5.20075L152.978 38.8044Z" fill="black"/>
<path d="M34.3871 21.7683C34.354 18.2224 37.3992 16.4972 37.5384 16.4169C35.8138 13.9932 33.1409 13.662 32.2015 13.6356C29.9565 13.4078 27.7788 14.9305 26.6351 14.9305C25.4687 14.9305 23.7075 13.6576 21.8095 13.695C19.367 13.7313 17.0821 15.0945 15.8287 17.2113C13.2425 21.5274 15.1713 27.8701 17.6493 31.3589C18.8887 33.0686 20.3372 34.9753 22.2329 34.9081C24.0876 34.8355 24.7804 33.7694 27.0186 33.7694C29.2362 33.7694 29.8868 34.9081 31.8202 34.8652C33.8108 34.8355 35.0639 33.1489 36.2602 31.4249C37.6926 29.4676 38.2677 27.5378 38.2907 27.4388C38.2449 27.4234 34.4259 26.0174 34.3871 21.7683ZM30.7348 11.3406C31.7322 10.138 32.4149 8.50201 32.2254 6.8418C30.7815 6.90341 28.9759 7.80448 27.9361 8.9806C27.0161 10.017 26.1944 11.7157 26.4067 13.3132C28.0286 13.4299 29.6939 12.5244 30.7348 11.3406Z" fill="white"/>
<path d="M148.602 0.00195312H71.8975L101.942 43.9982H148.602C151.575 43.9982 154 41.6691 154 38.8008V5.20154C154.001 2.3344 151.576 0.00195312 148.602 0.00195312Z" fill="url(#paint0_linear_455_2136)"/>
<path d="M61.2509 34.6628H58.6589L57.239 30.3621H52.3037L50.9512 34.6628H48.4277L53.3185 20.0212H56.3385L61.2509 34.6628ZM56.8111 28.5578L55.5271 24.7345C55.3913 24.344 55.1356 23.4242 54.7611 21.9763H54.7156C54.5649 22.599 54.3241 23.5188 53.9942 24.7345L52.7319 28.5578H56.8111ZM73.8036 29.2542C73.8036 31.0497 73.298 32.469 72.2855 33.511C71.3794 34.4384 70.2529 34.9017 68.9094 34.9017C67.4587 34.9017 66.4155 34.4032 65.7821 33.4043V38.9438H63.3487V27.5753C63.3487 26.4475 63.318 25.2912 63.2586 24.1052H65.3987L65.5345 25.7786H65.5801C66.3916 24.5178 67.6231 23.8873 69.2758 23.8873C70.5678 23.8873 71.6464 24.3791 72.5092 25.3638C73.371 26.3507 73.8036 27.6468 73.8036 29.2542ZM71.3245 29.34C71.3245 28.3124 71.0848 27.4653 70.6032 26.7974C70.077 26.1032 69.3705 25.7556 68.4848 25.7556C67.8845 25.7556 67.3389 25.9492 66.8515 26.3309C66.363 26.716 66.0434 27.2188 65.894 27.8415C65.8187 28.132 65.781 28.3685 65.781 28.5557V30.317C65.781 31.0838 66.0253 31.732 66.5138 32.2623C67.0023 32.7904 67.6369 33.0554 68.4176 33.0554C69.3342 33.0554 70.0475 32.7133 70.5576 32.0344C71.0688 31.3534 71.3245 30.4556 71.3245 29.34ZM86.4007 29.2542C86.4007 31.0497 85.8951 32.469 84.8827 33.511C83.9753 34.4384 82.8499 34.9017 81.5054 34.9017C80.0548 34.9017 79.0115 34.4032 78.3781 33.4043V38.9438H75.9447V27.5753C75.9447 26.4475 75.9139 25.2912 75.8546 24.1052H77.9946L78.1304 25.7786H78.1761C78.9864 24.5178 80.218 23.8873 81.8717 23.8873C83.1626 23.8873 84.2412 24.3791 85.1064 25.3638C85.9671 26.3507 86.4007 27.6468 86.4007 29.2542ZM83.9205 29.34C83.9205 28.3124 83.6798 27.4653 83.1981 26.7974C82.6719 26.1032 81.9677 25.7556 81.082 25.7556C80.4816 25.7556 79.936 25.9492 79.4464 26.3309C78.9579 26.716 78.6396 27.2188 78.49 27.8415C78.4158 28.132 78.3758 28.3685 78.3758 28.5557V30.317C78.3758 31.0838 78.6212 31.732 79.1074 32.2623C79.5959 32.7893 80.2305 33.0554 81.0135 33.0554C81.931 33.0554 82.6444 32.7133 83.1535 32.0344C83.6649 31.3534 83.9205 30.4556 83.9205 29.34ZM100.485 30.5557C100.485 31.8023 100.033 32.8156 99.1349 33.5978C98.1464 34.4516 96.7666 34.8796 94.9974 34.8796C93.363 34.8796 92.0527 34.5759 91.0643 33.9675L91.627 32.0124C92.6941 32.6219 93.8663 32.9256 95.1424 32.9256C96.06 32.9256 96.7733 32.7254 97.2824 32.3282C97.7925 31.9299 98.0505 31.3974 98.0505 30.7329C98.0505 30.1378 97.8371 29.6393 97.4182 29.2334C96.9971 28.8285 96.3008 28.4511 95.3228 28.1046C92.6633 27.1485 91.3325 25.7501 91.3325 23.9106C91.3325 22.7091 91.8027 21.7256 92.741 20.9565C93.6792 20.1886 94.9233 19.8047 96.471 19.8047C97.8532 19.8047 99.0048 20.0368 99.919 20.5L99.3084 22.4121C98.4478 21.9632 97.4764 21.7388 96.3899 21.7388C95.5317 21.7388 94.8582 21.9423 94.3765 22.3472C93.9713 22.7091 93.7659 23.1504 93.7659 23.674C93.7659 24.2517 94 24.7314 94.4655 25.1077C94.8696 25.4542 95.6069 25.8316 96.6729 26.2365C97.9809 26.7448 98.9418 27.3367 99.5571 28.0166C100.177 28.6964 100.485 29.5447 100.485 30.5557ZM108.551 25.8656H105.869V30.9914C105.869 32.2952 106.341 32.9454 107.289 32.9454C107.724 32.9454 108.084 32.9101 108.37 32.8365L108.437 34.6177C107.958 34.7905 107.326 34.8774 106.545 34.8774C105.583 34.8774 104.832 34.5946 104.29 34.0291C103.75 33.4636 103.479 32.5163 103.479 31.1829V25.8612H101.881V24.1008H103.479V22.1678L105.869 21.4724V24.1008H108.551V25.8656ZM120.629 29.2971C120.629 30.9198 120.147 32.2522 119.186 33.2942C118.181 34.3669 116.843 34.9016 115.175 34.9016C113.566 34.9016 112.287 34.3878 111.333 33.3613C110.378 32.3325 109.901 31.0365 109.901 29.4731C109.901 27.837 110.394 26.4971 111.377 25.4552C112.362 24.4122 113.688 23.8908 115.356 23.8908C116.963 23.8908 118.254 24.4056 119.231 25.4332C120.164 26.43 120.629 27.7172 120.629 29.2971ZM118.106 29.351C118.106 28.3838 117.89 27.5543 117.455 26.8601C116.945 26.0217 116.214 25.6026 115.268 25.6026C114.293 25.6026 113.546 26.0217 113.037 26.8601C112.601 27.5543 112.384 28.3981 112.384 29.3949C112.384 30.3632 112.601 31.1949 113.037 31.887C113.563 32.7254 114.297 33.1445 115.247 33.1445C116.178 33.1445 116.907 32.7166 117.434 31.8661C117.882 31.1554 118.106 30.3203 118.106 29.351ZM128.542 26.1681C128.301 26.1251 128.043 26.1031 127.775 26.1031C126.919 26.1031 126.257 26.4135 125.791 27.0383C125.387 27.5884 125.184 28.2837 125.184 29.1232V34.6627H122.751V27.4301C122.751 26.2143 122.727 25.1053 122.68 24.1063H124.8L124.889 26.1262H124.956C125.214 25.4321 125.618 24.872 126.173 24.4528C126.715 24.0755 127.3 23.8873 127.931 23.8873C128.156 23.8873 128.359 23.9027 128.54 23.9303L128.542 26.1681ZM139.425 28.8845C139.425 29.3048 139.396 29.659 139.336 29.9484H132.036C132.063 30.9914 132.417 31.7902 133.095 32.3403C133.71 32.8311 134.505 33.0774 135.482 33.0774C136.563 33.0774 137.549 32.9124 138.436 32.579L138.818 34.2062C137.781 34.6419 136.558 34.8587 135.146 34.8587C133.448 34.8587 132.114 34.3767 131.144 33.4152C130.176 32.4525 129.691 31.1587 129.691 29.5381C129.691 27.9471 130.142 26.6214 131.045 25.5641C131.99 24.4353 133.267 23.8708 134.874 23.8708C136.453 23.8708 137.648 24.4352 138.459 25.5641C139.102 26.4586 139.425 27.5676 139.425 28.8845ZM137.104 28.2761C137.121 27.5797 136.962 26.9801 136.632 26.4729C136.211 25.8193 135.562 25.4937 134.694 25.4937C133.898 25.4937 133.25 25.8116 132.757 26.4498C132.352 26.957 132.111 27.5665 132.037 28.2739L137.104 28.2761Z" fill="white"/>
<path d="M55.6378 14.7814H54.3628L53.6654 12.6679H51.2401L50.5746 14.7814H49.334L51.7377 7.58489H53.2214L55.6378 14.7814ZM53.4554 11.7811L52.8243 9.90193C52.7581 9.70939 52.6359 9.2616 52.4476 8.54647H52.4248C52.3472 8.85563 52.2365 9.30451 52.0698 9.90193L51.4501 11.7811H53.4554ZM61.6481 9.59277L59.6096 14.7814H58.4465L56.4743 9.59277H57.7595L58.6794 12.3367C58.8346 12.7955 58.967 13.2334 59.0663 13.6492H59.0994C59.1886 13.2763 59.3209 12.8384 59.4864 12.3367L60.3949 9.59277H61.6481ZM65.9875 14.7814L65.8985 14.1838H65.8653C65.5001 14.6646 64.9682 14.899 64.2926 14.899C63.3292 14.899 62.6421 14.2477 62.6421 13.3719C62.6421 12.0913 63.7937 11.4289 65.7877 11.4289V11.3332C65.7877 10.65 65.411 10.3078 64.6692 10.3078C64.1372 10.3078 63.6716 10.4365 63.263 10.6929L63.0198 9.93484C63.5186 9.63558 64.1384 9.48596 64.87 9.48596C66.2761 9.48596 66.986 10.2011 66.986 11.6325V13.5435C66.986 14.0672 67.0089 14.4732 67.0636 14.7824L65.9875 14.7814ZM65.8209 12.197C64.4913 12.197 63.8269 12.5072 63.8269 13.2433C63.8269 13.7879 64.1705 14.0541 64.6464 14.0541C65.2558 14.0541 65.8209 13.6063 65.8209 12.9979V12.197ZM69.6501 8.7379C69.2518 8.7379 68.9414 8.43865 68.9414 8.04367C68.9414 7.6487 69.2622 7.36044 69.673 7.36044C70.0827 7.36044 70.4149 7.6487 70.4035 8.04367C70.4035 8.46065 70.0942 8.7379 69.6501 8.7379ZM70.271 14.7814H69.0749V9.59277H70.271V14.7814ZM73.5924 14.7814H72.3962V7.21191H73.5924V14.7814ZM78.676 14.7814L78.5869 14.1838H78.5539C78.1886 14.6646 77.6568 14.899 76.9811 14.899C76.0178 14.899 75.3307 14.2477 75.3307 13.3719C75.3307 12.0913 76.4822 11.4289 78.4762 11.4289V11.3332C78.4762 10.65 78.0995 10.3078 77.3576 10.3078C76.8258 10.3078 76.3601 10.4365 75.9515 10.6929L75.7073 9.93374C76.2061 9.63448 76.8259 9.48486 77.5575 9.48486C78.9636 9.48486 79.6734 10.2 79.6734 11.6314V13.5424C79.6734 14.0661 79.6975 14.4721 79.75 14.7813H78.676V14.7814ZM78.5094 12.197C77.1797 12.197 76.5154 12.5072 76.5154 13.2433C76.5154 13.7879 76.8589 14.0541 77.3348 14.0541C77.9443 14.0541 78.5094 13.6063 78.5094 12.9979V12.197ZM84.5198 14.8991C83.7563 14.8991 83.1923 14.5888 82.8271 13.9804H82.8031L82.7347 14.7814H81.7154C81.7485 14.3655 81.7599 13.8946 81.7599 13.383V7.21191H82.9572V10.3519H82.9801C83.3349 9.7754 83.9092 9.48715 84.6967 9.48715C85.9932 9.48715 86.9018 10.5554 86.9018 12.1133C86.9018 13.7241 85.8928 14.8991 84.5198 14.8991ZM84.2766 10.3926C83.5884 10.3926 82.9585 10.9691 82.9585 11.7701V12.6778C82.9585 13.3929 83.5245 13.9804 84.2562 13.9804C85.1522 13.9804 85.6852 13.2763 85.6852 12.1552C85.6839 11.1089 85.1292 10.3926 84.2766 10.3926ZM89.8659 14.7814H88.671V7.21191H89.8659V14.7814ZM96.3774 12.4643H92.7867C92.8107 13.4468 93.484 14.0013 94.4815 14.0013C95.0134 14.0013 95.5007 13.9155 95.9322 13.756L96.1182 14.5569C95.6092 14.7704 95.0111 14.8771 94.3137 14.8771C92.6291 14.8771 91.6327 13.8517 91.6327 12.2619C91.6327 10.671 92.6531 9.47504 94.1791 9.47504C95.5522 9.47504 96.4172 10.4575 96.4172 11.9417C96.4218 12.1442 96.4115 12.3257 96.3774 12.4643ZM95.2805 11.6425C95.2805 10.8415 94.8592 10.276 94.0946 10.276C93.4074 10.276 92.8665 10.8525 92.7866 11.6425H95.2805ZM103.627 14.8991C102.054 14.8991 101.035 13.767 101.035 12.23C101.035 10.6281 102.076 9.48605 103.717 9.48605C105.266 9.48605 106.309 10.5643 106.309 12.1453C106.309 13.767 105.234 14.8991 103.627 14.8991ZM103.673 10.3288C102.809 10.3288 102.255 11.1078 102.255 12.197C102.255 13.2653 102.82 14.0442 103.662 14.0442C104.503 14.0442 105.066 13.2114 105.066 12.175C105.068 11.1188 104.514 10.3288 103.673 10.3288ZM112.74 14.7814H111.545V11.802C111.545 10.8844 111.18 10.4245 110.459 10.4245C109.751 10.4245 109.262 11.012 109.262 11.6953V14.7814H108.067V11.0758C108.067 10.6171 108.055 10.1253 108.023 9.59167H109.075L109.131 10.3926H109.164C109.484 9.83811 110.139 9.48495 110.869 9.48495C111.998 9.48495 112.74 10.3178 112.74 11.6733V14.7814H112.74ZM120.566 10.4575H119.25V12.977C119.25 13.6184 119.482 13.9386 119.946 13.9386C120.157 13.9386 120.336 13.9166 120.478 13.8847L120.511 14.7605C120.278 14.8464 119.967 14.8892 119.582 14.8892C118.639 14.8892 118.077 14.3875 118.077 13.0738V10.4575H117.292V9.59277H118.077V8.64219L119.25 8.30002V9.59167H120.566V10.4575ZM126.901 14.7814H125.703V11.824C125.703 10.8954 125.338 10.4256 124.618 10.4256C123.998 10.4256 123.423 10.8316 123.423 11.6535V14.7814H122.226V7.21191H123.423V10.3288H123.446C123.822 9.7633 124.366 9.48495 125.063 9.48495C126.203 9.48495 126.901 10.3387 126.901 11.6953V14.7814ZM133.013 12.4643H129.423C129.446 13.4468 130.119 14.0013 131.117 14.0013C131.65 14.0013 132.136 13.9155 132.568 13.756L132.755 14.5569C132.246 14.7704 131.647 14.8771 130.949 14.8771C129.265 14.8771 128.268 13.8517 128.268 12.2619C128.268 10.671 129.289 9.47504 130.815 9.47504C132.188 9.47504 133.053 10.4575 133.053 11.9417C133.057 12.1442 133.046 12.3257 133.013 12.4643ZM131.916 11.6425C131.916 10.8415 131.496 10.276 130.731 10.276C130.043 10.276 129.502 10.8525 129.423 11.6425H131.916Z" fill="white"/>
</g>
<defs>
<linearGradient id="paint0_linear_455_2136" x1="112.95" y1="44.1178" x2="112.95" y2="4.45964" gradientUnits="userSpaceOnUse">
<stop stop-color="#1A1A1A" stop-opacity="0.1"/>
<stop offset="0.123" stop-color="#212121" stop-opacity="0.151"/>
<stop offset="0.308" stop-color="#353535" stop-opacity="0.227"/>
<stop offset="0.532" stop-color="#575757" stop-opacity="0.318"/>
<stop offset="0.783" stop-color="#858585" stop-opacity="0.421"/>
<stop offset="1" stop-color="#B3B3B3" stop-opacity="0.51"/>
</linearGradient>
<clipPath id="clip0_455_2136">
<rect width="154" height="44" fill="white"/>
</clipPath>
</defs>
</svg>
