<svg width="64" height="65" viewBox="0 0 64 65" fill="none" xmlns="http://www.w3.org/2000/svg">
<path fill-rule="evenodd" clip-rule="evenodd" d="M15.5864 34.57C13.1883 28.3044 13.2506 20.262 13.5465 12.9989C11.3353 12.9677 14.5898 13.03 12.1139 12.9833C7.13092 12.9677 7.05306 9.80372 7.27107 5.50195H33.9611L33.9922 12.9054L21.8151 12.9989C20.7874 28.2888 20.3202 37.7028 33.9922 40.7577L33.9455 47.9897C25.8793 47.2259 18.8253 42.9865 15.5864 34.57Z" fill="#00A859"/>
<path fill-rule="evenodd" clip-rule="evenodd" d="M36.4819 12.7962L36.3417 12.7651L36.4196 5.50195C62.8293 7.76194 64.3554 45.4959 36.3573 48.052L36.3729 40.8356L36.3262 40.7577C53.0503 39.2303 54.0157 14.9315 36.4819 12.7962Z" fill="#FCB42F"/>
<path fill-rule="evenodd" clip-rule="evenodd" d="M35.4237 15.8203C37.2456 15.8203 38.7249 17.301 38.7249 19.1246C38.7249 20.9481 37.2456 22.4288 35.4237 22.4288C33.6018 22.4288 32.1225 20.9481 32.1225 19.1246C32.1225 17.301 33.6018 15.8203 35.4237 15.8203ZM35.4237 23.2081C39.0519 23.2081 42.0262 26.1851 42.0262 29.8322V34.1028C42.0262 35.3809 40.9828 36.4407 39.6904 36.4407H31.1415C29.8646 36.4407 28.8213 35.3809 28.8213 34.1028V29.8322C28.8213 26.1851 31.7955 23.2081 35.4237 23.2081Z" fill="#00A859"/>
<path d="M13.2823 60.9106H12.1767V54.2865H10.7441V53.2578H14.6994V54.2865H13.2823V60.9106ZM14.6059 60.9106H13.5626V55.1281H14.5437V55.7983C14.7149 55.5334 14.9018 55.3464 15.1354 55.2217C15.3534 55.097 15.6181 55.0346 15.8984 55.0346V56.1257C15.4468 56.1568 15.1042 56.2971 14.9018 56.5309C14.6994 56.7803 14.6059 57.1543 14.6059 57.6843V60.9106ZM20.8658 60.9106H19.8692V60.256C19.6512 60.5209 19.4332 60.7236 19.1685 60.8482C18.9193 60.9729 18.6235 61.0353 18.312 61.0353C17.5802 61.0353 17.0196 60.8171 16.6147 60.3651C16.2098 59.9131 16.023 59.2741 16.023 58.448V55.1281H17.0663V58.1519C17.0663 58.7753 17.1753 59.2429 17.3933 59.5546C17.6113 59.8663 17.9383 60.0222 18.3743 60.0222C18.6546 60.0222 18.8882 59.9598 19.1062 59.8352C19.3242 59.7105 19.4955 59.5234 19.6201 59.2896C19.6979 59.1338 19.7446 58.9623 19.7758 58.7597C19.8225 58.5571 19.8381 58.2298 19.8381 57.7778V55.1281H20.8658V60.9106ZM25.6775 57.4661C25.5529 56.9829 25.3349 56.6244 25.0079 56.3594C24.6965 56.0945 24.3072 55.9698 23.8711 55.9698C23.4196 55.9698 23.0147 56.1101 22.6877 56.375C22.3607 56.64 22.1271 56.9985 22.0025 57.4661H25.6775ZM21.9714 58.4012C22.0493 58.8844 22.2673 59.2741 22.6254 59.5702C22.968 59.8819 23.3729 60.0222 23.8556 60.0222C24.1982 60.0222 24.5096 59.9443 24.7899 59.7728C25.0702 59.6169 25.3038 59.3832 25.475 59.0714H26.6429C26.3782 59.726 26.0045 60.2092 25.5218 60.5521C25.0546 60.895 24.494 61.0509 23.8556 61.0509C23.4351 61.0509 23.0458 60.9885 22.6877 60.8327C22.3295 60.6768 22.0181 60.4586 21.7222 60.1625C21.4575 59.8663 21.2551 59.539 21.0994 59.1649C20.9437 58.7909 20.8658 58.4012 20.8658 58.0116C20.8658 57.6063 20.9437 57.2323 21.0838 56.8738C21.2084 56.5153 21.4108 56.2036 21.6911 55.9075C21.9714 55.5957 22.2984 55.3619 22.6565 55.1905C23.0147 55.0346 23.404 54.9567 23.84 54.9567C24.3383 54.9567 24.821 55.0814 25.257 55.3152C25.693 55.549 26.0512 55.8763 26.3315 56.2971C26.5028 56.5621 26.6274 56.8582 26.7052 57.1699C26.7831 57.4816 26.8298 57.8401 26.8298 58.2454V58.4012H21.9714Z" fill="#00A859"/>
<path d="M28.0445 57.0137C28.0445 57.341 28.1068 57.6527 28.2158 57.9333C28.3248 58.2138 28.4805 58.4788 28.6985 58.7126C28.9321 58.9619 29.1968 59.1646 29.4927 59.3048C29.7885 59.4451 30.1 59.5074 30.4114 59.5074C31.081 59.5074 31.6416 59.2737 32.1087 58.7905C32.5603 58.3229 32.7783 57.7306 32.7783 57.0137C32.7783 56.3591 32.5603 55.8135 32.0931 55.346C31.6416 54.8784 31.0965 54.6602 30.4425 54.6602C29.7885 54.6602 29.2124 54.8784 28.7452 55.346C28.2781 55.798 28.0445 56.3591 28.0445 57.0137ZM26.4873 57.0604C26.4873 56.6396 26.534 56.25 26.643 55.8759C26.7676 55.5018 26.9233 55.1589 27.1413 54.8316C27.5306 54.2861 27.9978 53.8497 28.5739 53.5536C29.1345 53.2574 29.7574 53.1016 30.4425 53.1016C30.9408 53.1016 31.4391 53.2107 31.9063 53.3977C32.3734 53.6003 32.7939 53.8809 33.1676 54.2549C33.5569 54.629 33.8372 55.0654 34.0396 55.533C34.242 56.0162 34.3355 56.5149 34.3355 57.0293C34.3355 57.5748 34.242 58.0891 34.0552 58.5723C33.8683 59.0555 33.588 59.4763 33.2299 59.8503C32.8717 60.24 32.4357 60.5361 31.953 60.7387C31.4547 60.957 30.9564 61.0505 30.4114 61.0505C29.8508 61.0505 29.3214 60.957 28.8386 60.7543C28.3715 60.5517 27.9355 60.2556 27.5618 59.8503C27.2036 59.4763 26.9389 59.0555 26.752 58.5723C26.5652 58.1047 26.4873 57.6059 26.4873 57.0604ZM37.4654 57.4033L36.4844 60.9102H35.6124L33.6036 55.1278H35.0518L35.9861 58.4632L37.0138 55.1278H38.0104L38.9759 58.4632L39.9102 55.1278H41.3583L39.3496 60.9102H38.462L37.4654 57.4033ZM42.2304 55.1278V55.7824C42.4328 55.5174 42.6508 55.3304 42.9155 55.2057C43.1647 55.081 43.445 55.0187 43.772 55.0187C44.1924 55.0187 44.5506 55.0966 44.862 55.2524C45.1734 55.4083 45.4382 55.6421 45.6406 55.9538C45.7807 56.172 45.8742 56.4058 45.9209 56.6708C45.9832 56.9357 46.0143 57.341 46.0143 57.8553V60.9102H44.6751V58.3541C44.6751 57.5748 44.5817 57.0448 44.4104 56.7487C44.2236 56.4682 43.9121 56.3279 43.4761 56.3279C43.0245 56.3279 42.7131 56.4837 42.5107 56.7955C42.3238 57.1228 42.2148 57.6527 42.2148 58.432V60.9102H40.9223V55.1278H42.2304ZM50.4678 57.3722C50.3433 56.9981 50.1564 56.702 49.8761 56.4993C49.6114 56.2967 49.2688 56.1876 48.8639 56.1876C48.5058 56.1876 48.1788 56.2967 47.8985 56.5149C47.6182 56.7331 47.4313 57.0293 47.3223 57.3722H50.4678ZM47.2756 58.4476C47.3223 58.8528 47.4936 59.1957 47.7739 59.4295C48.0542 59.6633 48.4279 59.788 48.8795 59.788C49.1754 59.788 49.4557 59.7257 49.6892 59.601C49.9228 59.4763 50.1253 59.2892 50.2654 59.071H51.7136C51.4644 59.6945 51.0907 60.1932 50.608 60.5361C50.1253 60.879 49.5647 61.0505 48.9107 61.0505C48.4902 61.0505 48.0854 60.9881 47.7272 60.8323C47.3691 60.6764 47.042 60.4582 46.7462 60.1621C46.4815 59.8659 46.2635 59.5386 46.1233 59.1646C45.9676 58.8061 45.8897 58.4164 45.8897 58.0268C45.8897 57.6215 45.9676 57.2475 46.1077 56.889C46.2323 56.5305 46.4503 56.2188 46.715 55.9226C47.0109 55.6109 47.3379 55.3771 47.7116 55.2057C48.0854 55.0498 48.4591 54.9563 48.8639 54.9563C49.3622 54.9563 49.8294 55.0654 50.2654 55.2992C50.6858 55.533 51.0596 55.8447 51.371 56.2655C51.5579 56.5149 51.6824 56.7799 51.7759 57.0916C51.8693 57.4033 51.916 57.7618 51.916 58.1515C51.916 58.1826 51.916 58.2294 51.9004 58.2917C51.9004 58.3697 51.9004 58.4164 51.9004 58.4476H47.2756ZM54.4854 56.2967C53.9715 56.3435 53.6133 56.4837 53.3953 56.7175C53.1929 56.9357 53.0995 57.3566 53.0995 57.9644V60.9102H51.7447V55.1278H53.006V55.798C53.2085 55.533 53.442 55.346 53.6756 55.2213C53.9092 55.1122 54.1895 55.0498 54.4854 55.0498V56.2967Z" fill="#FCB42F"/>
</svg>
